<?xml version="1.0" encoding="UTF-8" standalone="no"?>
		<svg xmlns:dc="http://purl.org/dc/elements/1.1/" xmlns:cc="http://creativecommons.org/ns#" xmlns:rdf="http://www.w3.org/1999/02/22-rdf-syntax-ns#" xmlns:svg="http://www.w3.org/2000/svg" xmlns="http://www.w3.org/2000/svg" xmlns:sodipodi="http://sodipodi.sourceforge.net/DTD/sodipodi-0.dtd" xmlns:inkscape="http://www.inkscape.org/namespaces/inkscape" width="1966.5354330708662" height="1948.8188976377953" id="box" version="1.1" inkscape:version="0.48.3.1 r9886" sodipodi:docname="dessin.svg">
			<defs id="defs4"></defs>
			<sodipodi:namedview id="base" pagecolor="#ffffff" bordercolor="#666666" borderopacity="1.0" inkscape:pageopacity="0.0" inkscape:pageshadow="2" inkscape:document-units="mm" inkscape:current-layer="layer1" showgrid="false" fit-margin-top="0" fit-margin-left="0" fit-margin-right="0" fit-margin-bottom="0" units="mm" inkscape:window-maximized="1"></sodipodi:namedview>
			<metadata id="metadata7">
				<rdf:rdf>
					<cc:work rdf:about="">
						<dc:format>image/svg+xml</dc:format>
						<dc:type rdf:resource="http://purl.org/dc/dcmitype/StillImage"></dc:type>
						<dc:title></dc:title>
					</cc:work>
				</rdf:rdf>
			</metadata>
			<g inkscape:label="Calque 1" inkscape:groupmode="layer" id="layer1"><path style="fill:#ffffff;stroke:#ff0000" id="bottom" transform="translate(17.716535433070867,17.716535433070867)" d="m 0,0 56.27605372857805,0 0,17.716535433070867 56.27605372857805,0 0,-17.716535433070867 56.27605372857805,0 0,17.716535433070867 56.27605372857805,0 0,-17.716535433070867 56.27605372857805,0 0,17.716535433070867 56.27605372857805,0 0,-17.716535433070867 56.27605372857805,0 0,17.716535433070867 56.27605372857805,0 0,-17.716535433070867 56.27605372857805,0 0,17.716535433070867 56.27605372857805,0 0,-17.716535433070867 56.27605372857805,0 0,17.716535433070867 56.27605372857805,0 0,-17.716535433070867 56.27605372857805,0 0,17.716535433070867 56.27605372857805,0 0,-17.716535433070867 56.27605372857805,0 0,17.716535433070867 56.27605372857805,0 0,-17.716535433070867 56.27605372857805,0 0,56.27605372857805 -17.716535433070867,0 0,56.27605372857805 17.716535433070867,0 0,56.27605372857805 -17.716535433070867,0 0,56.27605372857805 17.716535433070867,0 0,56.27605372857805 -17.716535433070867,0 0,56.27605372857805 17.716535433070867,0 0,56.27605372857805 -17.716535433070867,0 0,56.27605372857805 17.716535433070867,0 0,56.27605372857805 -17.716535433070867,0 0,56.27605372857805 17.716535433070867,0 0,56.27605372857805 -17.716535433070867,0 0,56.27605372857805 17.716535433070867,0 0,56.27605372857805 -17.716535433070867,0 0,56.27605372857805 17.716535433070867,0 0,56.27605372857805 -17.716535433070867,0 0,56.27605372857805 17.716535433070867,0 0,56.27605372857805 -56.27605372857805,0 0,-17.716535433070867 -56.27605372857805,0 0,17.716535433070867 -56.27605372857805,0 0,-17.716535433070867 -56.27605372857805,0 0,17.716535433070867 -56.27605372857805,0 0,-17.716535433070867 -56.27605372857805,0 0,17.716535433070867 -56.27605372857805,0 0,-17.716535433070867 -56.27605372857805,0 0,17.716535433070867 -56.27605372857805,0 0,-17.716535433070867 -56.27605372857805,0 0,17.716535433070867 -56.27605372857805,0 0,-17.716535433070867 -56.27605372857805,0 0,17.716535433070867 -56.27605372857805,0 0,-17.716535433070867 -56.27605372857805,0 0,17.716535433070867 -56.27605372857805,0 0,-17.716535433070867 -56.27605372857805,0 0,17.716535433070867 -56.27605372857805,0 0,-56.27605372857805 17.716535433070867,0 0,-56.27605372857805 -17.716535433070867,0 0,-56.27605372857805 17.716535433070867,0 0,-56.27605372857805 -17.716535433070867,0 0,-56.27605372857805 17.716535433070867,0 0,-56.27605372857805 -17.716535433070867,0 0,-56.27605372857805 17.716535433070867,0 0,-56.27605372857805 -17.716535433070867,0 0,-56.27605372857805 17.716535433070867,0 0,-56.27605372857805 -17.716535433070867,0 0,-56.27605372857805 17.716535433070867,0 0,-56.27605372857805 -17.716535433070867,0 0,-56.27605372857805 17.716535433070867,0 0,-56.27605372857805 -17.716535433070867,0 0,-56.27605372857805 17.716535433070867,0 0,-56.27605372857805 -17.716535433070867,0 0,-56.27605372857805 z"></path><path style="fill:#ffffff;stroke:#ff0000" id="font" transform="translate(992.1259842519686,992.1259842519686)" d="m 0,0 956.6929133858268,0 0,63.27334083239595 -17.716535433070867,0 0,63.27334083239595 17.716535433070867,0 0,63.27334083239595 -17.716535433070867,0 0,63.27334083239595 17.716535433070867,0 0,63.27334083239595 -17.716535433070867,0 0,63.27334083239595 17.716535433070867,0 0,63.27334083239595 -56.27605372857805,0 0,17.716535433070867 -56.27605372857805,0 0,-17.716535433070867 -56.27605372857805,0 0,17.716535433070867 -56.27605372857805,0 0,-17.716535433070867 -56.27605372857805,0 0,17.716535433070867 -56.27605372857805,0 0,-17.716535433070867 -56.27605372857805,0 0,17.716535433070867 -56.27605372857805,0 0,-17.716535433070867 -56.27605372857805,0 0,17.716535433070867 -56.27605372857805,0 0,-17.716535433070867 -56.27605372857805,0 0,17.716535433070867 -56.27605372857805,0 0,-17.716535433070867 -56.27605372857805,0 0,17.716535433070867 -56.27605372857805,0 0,-17.716535433070867 -56.27605372857805,0 0,17.716535433070867 -56.27605372857805,0 0,-17.716535433070867 -56.27605372857805,0 0,-63.27334083239595 17.716535433070867,0 0,-63.27334083239595 -17.716535433070867,0 0,-63.27334083239595 17.716535433070867,0 0,-63.27334083239595 -17.716535433070867,0 0,-63.27334083239595 17.716535433070867,0 0,-63.27334083239595 -17.716535433070867,0 0,-63.27334083239595 z"></path><path style="fill:#ffffff;stroke:#ff0000" id="back" transform="translate(17.716535433070867,992.1259842519686)" d="m 0,0 956.6929133858268,0 0,63.27334083239595 -17.716535433070867,0 0,63.27334083239595 17.716535433070867,0 0,63.27334083239595 -17.716535433070867,0 0,63.27334083239595 17.716535433070867,0 0,63.27334083239595 -17.716535433070867,0 0,63.27334083239595 17.716535433070867,0 0,63.27334083239595 -56.27605372857805,0 0,17.716535433070867 -56.27605372857805,0 0,-17.716535433070867 -56.27605372857805,0 0,17.716535433070867 -56.27605372857805,0 0,-17.716535433070867 -56.27605372857805,0 0,17.716535433070867 -56.27605372857805,0 0,-17.716535433070867 -56.27605372857805,0 0,17.716535433070867 -56.27605372857805,0 0,-17.716535433070867 -56.27605372857805,0 0,17.716535433070867 -56.27605372857805,0 0,-17.716535433070867 -56.27605372857805,0 0,17.716535433070867 -56.27605372857805,0 0,-17.716535433070867 -56.27605372857805,0 0,17.716535433070867 -56.27605372857805,0 0,-17.716535433070867 -56.27605372857805,0 0,17.716535433070867 -56.27605372857805,0 0,-17.716535433070867 -56.27605372857805,0 0,-63.27334083239595 17.716535433070867,0 0,-63.27334083239595 -17.716535433070867,0 0,-63.27334083239595 17.716535433070867,0 0,-63.27334083239595 -17.716535433070867,0 0,-63.27334083239595 17.716535433070867,0 0,-63.27334083239595 -17.716535433070867,0 0,-63.27334083239595 z"></path><path style="fill:#ffffff;stroke:#ff0000" id="left_side" transform="translate(992.1259842519686,1470.472440944882)" d="m 17.716535433070867,0 885.8267716535433,0 0,63.27334083239595 17.716535433070867,0 0,63.27334083239595 -17.716535433070867,0 0,63.27334083239595 17.716535433070867,0 0,63.27334083239595 -17.716535433070867,0 0,63.27334083239595 17.716535433070867,0 0,63.27334083239595 -17.716535433070867,0 0,63.27334083239595 -38.55951829550718,0 0,17.716535433070867 -56.27605372857805,0 0,-17.716535433070867 -56.27605372857805,0 0,17.716535433070867 -56.27605372857805,0 0,-17.716535433070867 -56.27605372857805,0 0,17.716535433070867 -56.27605372857805,0 0,-17.716535433070867 -56.27605372857805,0 0,17.716535433070867 -56.27605372857805,0 0,-17.716535433070867 -56.27605372857805,0 0,17.716535433070867 -56.27605372857805,0 0,-17.716535433070867 -56.27605372857805,0 0,17.716535433070867 -56.27605372857805,0 0,-17.716535433070867 -56.27605372857805,0 0,17.716535433070867 -56.27605372857805,0 0,-17.716535433070867 -56.27605372857805,0 0,17.716535433070867 -56.27605372857805,0 0,-17.716535433070867 -38.55951829550718,0 0,-63.27334083239595 -17.716535433070867,0 0,-63.27334083239595 17.716535433070867,0 0,-63.27334083239595 -17.716535433070867,0 0,-63.27334083239595 17.716535433070867,0 0,-63.27334083239595 -17.716535433070867,0 0,-63.27334083239595 17.716535433070867,0 0,-63.27334083239595 z"></path><path style="fill:#ffffff;stroke:#ff0000" id="right_side" transform="translate(17.716535433070867,1470.472440944882)" d="m 17.716535433070867,0 885.8267716535433,0 0,63.27334083239595 17.716535433070867,0 0,63.27334083239595 -17.716535433070867,0 0,63.27334083239595 17.716535433070867,0 0,63.27334083239595 -17.716535433070867,0 0,63.27334083239595 17.716535433070867,0 0,63.27334083239595 -17.716535433070867,0 0,63.27334083239595 -38.55951829550718,0 0,17.716535433070867 -56.27605372857805,0 0,-17.716535433070867 -56.27605372857805,0 0,17.716535433070867 -56.27605372857805,0 0,-17.716535433070867 -56.27605372857805,0 0,17.716535433070867 -56.27605372857805,0 0,-17.716535433070867 -56.27605372857805,0 0,17.716535433070867 -56.27605372857805,0 0,-17.716535433070867 -56.27605372857805,0 0,17.716535433070867 -56.27605372857805,0 0,-17.716535433070867 -56.27605372857805,0 0,17.716535433070867 -56.27605372857805,0 0,-17.716535433070867 -56.27605372857805,0 0,17.716535433070867 -56.27605372857805,0 0,-17.716535433070867 -56.27605372857805,0 0,17.716535433070867 -56.27605372857805,0 0,-17.716535433070867 -38.55951829550718,0 0,-63.27334083239595 -17.716535433070867,0 0,-63.27334083239595 17.716535433070867,0 0,-63.27334083239595 -17.716535433070867,0 0,-63.27334083239595 17.716535433070867,0 0,-63.27334083239595 -17.716535433070867,0 0,-63.27334083239595 17.716535433070867,0 0,-63.27334083239595 z"></path></g>
		</svg>
	