<?xml version="1.0" encoding="UTF-8" standalone="no"?>
<!-- Created with Inkscape (http://www.inkscape.org/) -->

<svg
   xmlns:dc="http://purl.org/dc/elements/1.1/"
   xmlns:cc="http://creativecommons.org/ns#"
   xmlns:rdf="http://www.w3.org/1999/02/22-rdf-syntax-ns#"
   xmlns:svg="http://www.w3.org/2000/svg"
   xmlns="http://www.w3.org/2000/svg"
   xmlns:sodipodi="http://sodipodi.sourceforge.net/DTD/sodipodi-0.dtd"
   xmlns:inkscape="http://www.inkscape.org/namespaces/inkscape"
   width="618.83905mm"
   height="209.46097mm"
   viewBox="0 0 618.83905 209.46097"
   version="1.1"
   id="svg8"
   inkscape:version="0.92.2 5c3e80d, 2017-08-06"
   sodipodi:docname="crem.svg">
  <defs
     id="defs2" />
  <sodipodi:namedview
     id="base"
     pagecolor="#ffffff"
     bordercolor="#666666"
     borderopacity="1.0"
     inkscape:pageopacity="0.0"
     inkscape:pageshadow="2"
     inkscape:zoom="0.11748989"
     inkscape:cx="2178.9313"
     inkscape:cy="541.47398"
     inkscape:document-units="mm"
     inkscape:current-layer="layer3"
     showgrid="false"
     inkscape:snap-grids="true"
     inkscape:window-width="1280"
     inkscape:window-height="755"
     inkscape:window-x="0"
     inkscape:window-y="1"
     inkscape:window-maximized="1"
     inkscape:measure-start="272.55,805.104"
     inkscape:measure-end="121.551,806.921"
     fit-margin-top="0"
     fit-margin-left="0"
     fit-margin-right="0"
     fit-margin-bottom="0" />
  <metadata
     id="metadata5">
    <rdf:RDF>
      <cc:Work
         rdf:about="">
        <dc:format>image/svg+xml</dc:format>
        <dc:type
           rdf:resource="http://purl.org/dc/dcmitype/StillImage" />
        <dc:title></dc:title>
      </cc:Work>
    </rdf:RDF>
  </metadata>
  <g
     inkscape:label="Calque 1"
     inkscape:groupmode="layer"
     id="layer1"
     style="display:inline"
     transform="translate(258.57867,-107.57588)">
    <path
       style="fill:none;stroke:#000000;stroke-width:0.26458332px;stroke-linecap:butt;stroke-linejoin:miter;stroke-opacity:1"
       d="m 148.87202,107.96966 3.65324,-0.0858 2.10337,5.68925 3.72367,-0.009 2.23063,-5.70555 3.6988,0.003 2.19674,5.68333"
       id="path2655"
       inkscape:connector-curvature="0"
       sodipodi:nodetypes="ccccccc" />
    <path
       style="display:inline;fill:none;stroke:#000000;stroke-width:0.26458332px;stroke-linecap:butt;stroke-linejoin:miter;stroke-opacity:1"
       d="m 166.47847,113.54453 3.65338,0.0796 2.09365,-5.69283 3.72368,0.003 2.24037,5.70173 3.69879,-0.009 2.18703,-5.68707"
       id="path2655-8"
       inkscape:connector-curvature="0"
       sodipodi:nodetypes="ccccccc" />
    <path
       style="display:inline;fill:none;stroke:#000000;stroke-width:0.26458332px;stroke-linecap:butt;stroke-linejoin:miter;stroke-opacity:1"
       d="m 184.07537,107.9396 3.65323,-0.0858 2.10338,5.68924 3.72367,-0.009 2.23063,-5.70554 3.6988,0.003 2.19674,5.68332"
       id="path2655-7"
       inkscape:connector-curvature="0"
       sodipodi:nodetypes="ccccccc" />
    <path
       style="display:inline;fill:none;stroke:#000000;stroke-width:0.26458332px;stroke-linecap:butt;stroke-linejoin:miter;stroke-opacity:1"
       d="m 201.68182,113.51446 3.65338,0.0796 2.09364,-5.69283 3.72369,0.003 2.24037,5.70173 3.69879,-0.009 2.18703,-5.68706"
       id="path2655-8-7"
       inkscape:connector-curvature="0"
       sodipodi:nodetypes="ccccccc" />
    <path
       style="display:inline;fill:none;stroke:#000000;stroke-width:0.26458332px;stroke-linecap:butt;stroke-linejoin:miter;stroke-opacity:1"
       d="m 219.27872,107.90954 3.65322,-0.0858 2.10338,5.68924 3.72368,-0.009 2.23062,-5.70555 3.69881,0.003 2.19673,5.68332"
       id="path2655-4"
       inkscape:connector-curvature="0"
       sodipodi:nodetypes="ccccccc" />
    <path
       style="display:inline;fill:none;stroke:#000000;stroke-width:0.26458332px;stroke-linecap:butt;stroke-linejoin:miter;stroke-opacity:1"
       d="m 236.88516,113.4844 3.65338,0.0796 2.09365,-5.69283 3.72368,0.003 2.24037,5.70173 3.6988,-0.009 2.18702,-5.68707"
       id="path2655-8-4"
       inkscape:connector-curvature="0"
       sodipodi:nodetypes="ccccccc" />
    <path
       style="display:inline;fill:none;stroke:#000000;stroke-width:0.26458332px;stroke-linecap:butt;stroke-linejoin:miter;stroke-opacity:1"
       d="m 254.48206,107.87947 3.65324,-0.0858 2.10337,5.68925 3.72367,-0.009 2.23063,-5.70555 3.6988,0.003 2.19674,5.68333"
       id="path2655-9"
       inkscape:connector-curvature="0"
       sodipodi:nodetypes="ccccccc" />
    <path
       style="display:inline;fill:none;stroke:#000000;stroke-width:0.26458332px;stroke-linecap:butt;stroke-linejoin:miter;stroke-opacity:1"
       d="m 272.08851,113.45434 3.65338,0.0796 2.09365,-5.69283 3.72368,0.003 2.24037,5.70173 3.69879,-0.009 2.18703,-5.68707"
       id="path2655-8-1"
       inkscape:connector-curvature="0"
       sodipodi:nodetypes="ccccccc" />
    <path
       style="display:inline;fill:none;stroke:#000000;stroke-width:0.26458332px;stroke-linecap:butt;stroke-linejoin:miter;stroke-opacity:1"
       d="m 289.68541,107.84941 3.65323,-0.0858 2.10338,5.68924 3.72367,-0.009 2.23063,-5.70554 3.6988,0.003 2.19674,5.68332"
       id="path2655-5"
       inkscape:connector-curvature="0"
       sodipodi:nodetypes="ccccccc" />
    <path
       style="display:inline;fill:none;stroke:#000000;stroke-width:0.26458332px;stroke-linecap:butt;stroke-linejoin:miter;stroke-opacity:1"
       d="m 307.29186,113.42427 3.65338,0.0796 2.09364,-5.69283 3.72369,0.003 2.24037,5.70173 3.69879,-0.009 2.18703,-5.68707"
       id="path2655-8-5"
       inkscape:connector-curvature="0"
       sodipodi:nodetypes="ccccccc" />
    <path
       style="display:inline;fill:none;stroke:#000000;stroke-width:0.26458332px;stroke-linecap:butt;stroke-linejoin:miter;stroke-opacity:1"
       d="m 324.88876,107.81934 3.65322,-0.0858 2.10338,5.68925 3.72367,-0.009 2.23062,-5.70555 3.69881,0.003 2.19673,5.68333"
       id="path2655-58"
       inkscape:connector-curvature="0"
       sodipodi:nodetypes="ccccccc" />
    <path
       style="display:inline;fill:none;stroke:#000000;stroke-width:0.26458332px;stroke-linecap:butt;stroke-linejoin:miter;stroke-opacity:1"
       d="m 342.49519,113.39421 3.65338,0.0796 2.09365,-5.69283 3.72369,0.003 2.24037,5.70173 3.69879,-0.009 2.18702,-5.68707"
       id="path2655-8-2"
       inkscape:connector-curvature="0"
       sodipodi:nodetypes="ccccccc" />
  </g>
  <g
     inkscape:groupmode="layer"
     id="layer3"
     inkscape:label="Calque 2"
     style="display:inline"
     transform="translate(258.57867,-107.57588)">
    <path
       style="display:inline;fill:none;stroke:#000000;stroke-width:0.26458332px;stroke-linecap:butt;stroke-linejoin:miter;stroke-opacity:1"
       d="m 312.03563,282.11148 3.63036,0.0659 2.3746,-5.7179 3.72367,-0.0149 2.10252,5.68956 3.72368,-0.009 2.23147,-5.70522 3.69881,0.003 2.19589,5.68365 3.6303,-0.003 2.20664,-5.63084"
       id="path5120-3-99-3"
       inkscape:connector-curvature="0"
       sodipodi:nodetypes="ccccccccccc" />
    <path
       style="fill:none;stroke:#000000;stroke-width:0.32856581px;stroke-linecap:butt;stroke-linejoin:miter;stroke-opacity:1"
       d="m 360.17505,147.78917 -211.25974,0.18041"
       id="path2443"
       inkscape:connector-curvature="0" />
    <path
       style="fill:none;stroke:#000000;stroke-width:0.264819px;stroke-linecap:butt;stroke-linejoin:miter;stroke-opacity:1"
       d="m 148.91518,147.96958 -0.0432,-39.99992"
       id="path2445"
       inkscape:connector-curvature="0" />
    <path
       style="fill:none;stroke:#000000;stroke-width:0.26827776px;stroke-linecap:butt;stroke-linejoin:miter;stroke-opacity:1"
       d="m 360.12625,147.78927 -0.0342,-39.99999 v 0"
       id="path2447"
       inkscape:connector-curvature="0" />
    <path
       style="fill:none;stroke:#000000;stroke-width:0.27935609px;stroke-linecap:butt;stroke-linejoin:miter;stroke-opacity:1"
       d="m -258.40906,316.89717 599.99985,-0.42328"
       id="path2449"
       inkscape:connector-curvature="0" />
    <path
       style="display:inline;fill:none;stroke:#000000;stroke-width:0.264819px;stroke-linecap:butt;stroke-linejoin:miter;stroke-opacity:1"
       d="m -258.40906,316.89717 -0.0372,-39.99992"
       id="path2445-8"
       inkscape:connector-curvature="0" />
    <path
       style="display:inline;fill:none;stroke:#000000;stroke-width:0.264819px;stroke-linecap:butt;stroke-linejoin:miter;stroke-opacity:1"
       d="m 341.59079,316.47389 -0.0372,-39.99993"
       id="path2445-83"
       inkscape:connector-curvature="0" />
    <path
       style="display:inline;fill:none;stroke:#000000;stroke-width:0.26458332px;stroke-linecap:butt;stroke-linejoin:miter;stroke-opacity:1"
       d="m 288.35464,282.1156 3.63036,0.0659 2.3746,-5.7179 3.72367,-0.0149 2.10252,5.68956 3.72367,-0.009 2.23148,-5.70521 3.6988,0.003 2.19589,5.68365 3.6303,-0.003 2.20665,-5.63084"
       id="path5120-3-99-3-8"
       inkscape:connector-curvature="0"
       sodipodi:nodetypes="ccccccccccc" />
    <path
       style="display:inline;fill:none;stroke:#000000;stroke-width:0.26458332px;stroke-linecap:butt;stroke-linejoin:miter;stroke-opacity:1"
       d="m 264.67365,282.11971 3.63036,0.0659 2.37459,-5.7179 3.72367,-0.0149 2.10253,5.68956 3.72367,-0.009 2.23148,-5.70522 3.6988,0.003 2.19589,5.68366"
       id="path5120-3-99-3-3"
       inkscape:connector-curvature="0"
       sodipodi:nodetypes="ccccccccc" />
    <path
       style="display:inline;fill:none;stroke:#000000;stroke-width:0.26458332px;stroke-linecap:butt;stroke-linejoin:miter;stroke-opacity:1"
       d="m 240.99266,282.12383 3.63035,0.0659 2.3746,-5.7179 3.72367,-0.0149 2.10252,5.68956 3.72368,-0.009 2.23147,-5.70521 3.69881,0.003 2.19589,5.68365"
       id="path5120-3-99-3-3-4"
       inkscape:connector-curvature="0"
       sodipodi:nodetypes="ccccccccc" />
    <path
       style="display:inline;fill:none;stroke:#000000;stroke-width:0.26458332px;stroke-linecap:butt;stroke-linejoin:miter;stroke-opacity:1"
       d="m 169.94968,282.13617 3.63035,0.0659 2.3746,-5.7179 3.72367,-0.0149 2.10253,5.68957 3.72367,-0.009 2.23148,-5.70522 3.6988,0.003 2.19589,5.68366"
       id="path5120-3-99-3-3-3"
       inkscape:connector-curvature="0"
       sodipodi:nodetypes="ccccccccc" />
    <path
       style="display:inline;fill:none;stroke:#000000;stroke-width:0.26458332px;stroke-linecap:butt;stroke-linejoin:miter;stroke-opacity:1"
       d="m 146.26868,282.14029 3.63036,0.0659 2.3746,-5.7179 3.72367,-0.0149 2.10252,5.68956 3.72368,-0.009 2.23147,-5.70521 3.69881,0.003 2.19589,5.68365"
       id="path5120-3-99-3-3-6"
       inkscape:connector-curvature="0"
       sodipodi:nodetypes="ccccccccc" />
    <path
       style="display:inline;fill:none;stroke:#000000;stroke-width:0.26458332px;stroke-linecap:butt;stroke-linejoin:miter;stroke-opacity:1"
       d="m 193.63067,282.13206 3.63036,0.0659 2.37459,-5.71791 3.72367,-0.0149 2.10253,5.68956 3.72367,-0.009 2.23148,-5.70521 3.6988,0.003 2.19589,5.68365"
       id="path5120-3-99-3-3-5"
       inkscape:connector-curvature="0"
       sodipodi:nodetypes="ccccccccc" />
    <path
       style="display:inline;fill:none;stroke:#000000;stroke-width:0.26458332px;stroke-linecap:butt;stroke-linejoin:miter;stroke-opacity:1"
       d="m 217.31166,282.12794 3.63036,0.0659 2.3746,-5.7179 3.72367,-0.0149 2.10252,5.68956 3.72368,-0.009 2.23147,-5.70522 3.6988,0.003 2.1959,5.68366"
       id="path5120-3-99-3-3-9"
       inkscape:connector-curvature="0"
       sodipodi:nodetypes="ccccccccc" />
    <path
       style="display:inline;fill:none;stroke:#000000;stroke-width:0.26458332px;stroke-linecap:butt;stroke-linejoin:miter;stroke-opacity:1"
       d="m 122.58769,282.1444 3.63036,0.0659 2.37459,-5.7179 3.72367,-0.0149 2.10253,5.68957 3.72367,-0.009 2.23148,-5.70522 3.6988,0.003 2.19589,5.68366"
       id="path5120-3-99-3-8-5"
       inkscape:connector-curvature="0"
       sodipodi:nodetypes="ccccccccc" />
    <path
       style="display:inline;fill:none;stroke:#000000;stroke-width:0.26458332px;stroke-linecap:butt;stroke-linejoin:miter;stroke-opacity:1"
       d="m 98.906697,282.14852 3.630353,0.0659 2.3746,-5.71791 3.72367,-0.0149 2.10253,5.68956 3.72367,-0.009 2.23148,-5.70521 3.6988,0.003 2.19589,5.68365"
       id="path5120-3-99-3-3-49"
       inkscape:connector-curvature="0"
       sodipodi:nodetypes="ccccccccc" />
    <path
       style="display:inline;fill:none;stroke:#000000;stroke-width:0.26458332px;stroke-linecap:butt;stroke-linejoin:miter;stroke-opacity:1"
       d="m 75.225704,282.15263 3.630358,0.0659 2.374596,-5.7179 3.723671,-0.0149 2.102524,5.68957 3.723675,-0.009 2.231476,-5.70522 3.698803,0.003 2.19589,5.68366"
       id="path5120-3-99-3-3-4-1"
       inkscape:connector-curvature="0"
       sodipodi:nodetypes="ccccccccc" />
    <path
       style="display:inline;fill:none;stroke:#000000;stroke-width:0.26458332px;stroke-linecap:butt;stroke-linejoin:miter;stroke-opacity:1"
       d="m 4.1827252,282.16498 3.6303574,0.0659 2.3745964,-5.7179 3.723671,-0.0149 2.102524,5.68956 3.723675,-0.009 2.231476,-5.70521 3.698803,0.003 2.19589,5.68365"
       id="path5120-3-99-3-3-3-7"
       inkscape:connector-curvature="0"
       sodipodi:nodetypes="ccccccccc" />
    <path
       style="display:inline;fill:none;stroke:#000000;stroke-width:0.26458332px;stroke-linecap:butt;stroke-linejoin:miter;stroke-opacity:1"
       d="m -19.498268,282.16909 3.630358,0.0659 2.374596,-5.7179 3.7236708,-0.0149 2.1025243,5.68957 3.7236748,-0.009 2.2314757,-5.70522 3.6988034,0.004 2.1958902,5.68365"
       id="path5120-3-99-3-3-6-5"
       inkscape:connector-curvature="0"
       sodipodi:nodetypes="ccccccccc" />
    <path
       style="display:inline;fill:none;stroke:#000000;stroke-width:0.26458332px;stroke-linecap:butt;stroke-linejoin:miter;stroke-opacity:1"
       d="m 27.863718,282.16086 3.630358,0.0659 2.374596,-5.7179 3.723671,-0.0149 2.102524,5.68957 3.723675,-0.009 2.231476,-5.70522 3.698803,0.003 2.19589,5.68366"
       id="path5120-3-99-3-3-5-5"
       inkscape:connector-curvature="0"
       sodipodi:nodetypes="ccccccccc" />
    <path
       style="display:inline;fill:none;stroke:#000000;stroke-width:0.26458332px;stroke-linecap:butt;stroke-linejoin:miter;stroke-opacity:1"
       d="m 51.544711,282.15675 3.630358,0.0659 2.374596,-5.7179 3.723671,-0.0149 2.102524,5.68956 3.723675,-0.009 2.231476,-5.70521 3.698803,0.003 2.19589,5.68365"
       id="path5120-3-99-3-3-9-4"
       inkscape:connector-curvature="0"
       sodipodi:nodetypes="ccccccccc" />
    <path
       style="display:inline;fill:none;stroke:#000000;stroke-width:0.26458332px;stroke-linecap:butt;stroke-linejoin:miter;stroke-opacity:1"
       d="m -43.179261,282.17321 3.630358,0.0659 2.374596,-5.7179 3.723671,-0.0149 2.102524,5.68956 3.723675,-0.009 2.231476,-5.70521 3.698803,0.003 2.19589,5.68365"
       id="path5120-3-99-3-8-1"
       inkscape:connector-curvature="0"
       sodipodi:nodetypes="ccccccccc" />
    <path
       style="display:inline;fill:none;stroke:#000000;stroke-width:0.26458332px;stroke-linecap:butt;stroke-linejoin:miter;stroke-opacity:1"
       d="m -66.860254,282.17732 3.630358,0.0659 2.374596,-5.7179 3.723671,-0.0149 2.102524,5.68957 3.723675,-0.009 2.231476,-5.70521 3.698803,0.003 2.19589,5.68365"
       id="path5120-3-99-3-3-8"
       inkscape:connector-curvature="0"
       sodipodi:nodetypes="ccccccccc" />
    <path
       style="display:inline;fill:none;stroke:#000000;stroke-width:0.26458332px;stroke-linecap:butt;stroke-linejoin:miter;stroke-opacity:1"
       d="m -90.541247,282.18144 3.630358,0.0659 2.374596,-5.7179 3.723671,-0.0149 2.102524,5.68956 3.723675,-0.009 2.231476,-5.70521 3.698803,0.003 2.19589,5.68365"
       id="path5120-3-99-3-3-4-8"
       inkscape:connector-curvature="0"
       sodipodi:nodetypes="ccccccccc" />
    <path
       style="display:inline;fill:none;stroke:#000000;stroke-width:0.26458332px;stroke-linecap:butt;stroke-linejoin:miter;stroke-opacity:1"
       d="m -161.58423,282.19378 3.63036,0.0659 2.37459,-5.7179 3.72368,-0.0149 2.10252,5.68957 3.72368,-0.009 2.23147,-5.70521 3.69881,0.003 2.19589,5.68365"
       id="path5120-3-99-3-3-3-3"
       inkscape:connector-curvature="0"
       sodipodi:nodetypes="ccccccccc" />
    <path
       style="display:inline;fill:none;stroke:#000000;stroke-width:0.26458332px;stroke-linecap:butt;stroke-linejoin:miter;stroke-opacity:1"
       d="m -185.26522,282.1979 3.63035,0.0659 2.3746,-5.7179 3.72367,-0.0149 2.10253,5.68956 3.72367,-0.009 2.23148,-5.70522 3.6988,0.003 2.19589,5.68365"
       id="path5120-3-99-3-3-6-52"
       inkscape:connector-curvature="0"
       sodipodi:nodetypes="ccccccccc" />
    <path
       style="display:inline;fill:none;stroke:#000000;stroke-width:0.26458332px;stroke-linecap:butt;stroke-linejoin:miter;stroke-opacity:1"
       d="m -137.90323,282.18967 3.63035,0.0659 2.3746,-5.7179 3.72367,-0.0149 2.10253,5.68956 3.72367,-0.009 2.23148,-5.70521 3.6988,0.003 2.19589,5.68365"
       id="path5120-3-99-3-3-5-2"
       inkscape:connector-curvature="0"
       sodipodi:nodetypes="ccccccccc" />
    <path
       style="display:inline;fill:none;stroke:#000000;stroke-width:0.26458332px;stroke-linecap:butt;stroke-linejoin:miter;stroke-opacity:1"
       d="m -114.22224,282.18555 3.63036,0.0659 2.37459,-5.7179 3.72367,-0.0149 2.10253,5.68957 3.723674,-0.009 2.231476,-5.70522 3.698803,0.004 2.19589,5.68365"
       id="path5120-3-99-3-3-9-6"
       inkscape:connector-curvature="0"
       sodipodi:nodetypes="ccccccccc" />
    <path
       style="display:inline;fill:none;stroke:#000000;stroke-width:0.26458332px;stroke-linecap:butt;stroke-linejoin:miter;stroke-opacity:1"
       d="m -208.94622,282.20202 3.63036,0.0659 2.3746,-5.7179 3.72367,-0.0149 2.10252,5.68956 3.72368,-0.009 2.23147,-5.70521 3.69881,0.003 2.19589,5.68365"
       id="path5120-3-99-3-8-6"
       inkscape:connector-curvature="0"
       sodipodi:nodetypes="ccccccccc" />
    <path
       style="display:inline;fill:none;stroke:#000000;stroke-width:0.26458332px;stroke-linecap:butt;stroke-linejoin:miter;stroke-opacity:1"
       d="m -232.62722,282.20613 3.63036,0.0659 2.3746,-5.7179 3.72367,-0.0149 2.10252,5.68956 3.72368,-0.009 2.23147,-5.70522 3.69881,0.003 2.19589,5.68366"
       id="path5120-3-99-3-3-7"
       inkscape:connector-curvature="0"
       sodipodi:nodetypes="ccccccccc" />
    <path
       style="display:inline;fill:none;stroke:#000000;stroke-width:0.26458332px;stroke-linecap:butt;stroke-linejoin:miter;stroke-opacity:1"
       d="m -256.30821,282.21025 3.63036,0.0659 2.3746,-5.7179 3.72367,-0.0149 2.10252,5.68956 3.72367,-0.009 2.23148,-5.70521 3.6988,0.003 2.19589,5.68365"
       id="path5120-3-99-3-3-4-84"
       inkscape:connector-curvature="0"
       sodipodi:nodetypes="ccccccccc" />
    <path
       style="fill:none;stroke:#000000;stroke-width:0.26458332px;stroke-linecap:butt;stroke-linejoin:miter;stroke-opacity:1"
       d="m -256.30821,282.21025 -2.13807,-5.313"
       id="path2619"
       inkscape:connector-curvature="0" />
  </g>
</svg>
